STARTFONT 2.1
COMMENT $Id$
COMMENT 
COMMENT Copyright (C) Centre d'Etudes de la Navigation Aťrienne
COMMENT 
COMMENT This software is free software; you can redistribute it and/or
COMMENT modify it under the terms of the GNU Lesser General Public License
COMMENT as published by the Free Software Foundation: either version 2
COMMENT of the License, or (at your option) any later version.
COMMENT 
COMMENT This software is distributed in the hope that it will be useful,
COMMENT but WITHOUT ANY WARRANTY; without even the implied warranty of
COMMENT MERCHANTABILITY or FITNESS FOR A PARTICULAR PURPOSE.  See the
COMMENT GNU Lesser General Public License for more details.
COMMENT 
COMMENT You should have received a copy of the GNU Lesser General Public License
COMMENT along with this software; if not, write to the Free Software
COMMENT Foundation, Inc., 59 Temple Place - Suite 330, Boston, MA  02111-1307, USA.
COMMENT Please refer to http://www.gnu.org/copyleft/gpl.html
COMMENT
COMMENT to contact us:
COMMENT    email to:  pii-contact@cena.dgac.fr
COMMENT or write to: CENA, 7 avenue Edouard Belin, 31400 Toulouse, France 
COMMENT 
FONT -cena-orly symbol1-----32-320-75-75-c-320-fontspecific-1
SIZE 32 75 75
FONTBOUNDINGBOX 32 32 -16 -16
STARTPROPERTIES 21
FOUNDRY "CENA"
FAMILY_NAME "orly symbol1"
COPYRIGHT "Copyright 1999 CENA/J.L.Vinot"
SLANT ""
SETWIDTH_NAME ""
ADD_STYLE_NAME ""
PIXEL_SIZE 32
POINT_SIZE 320
RESOLUTION_X 75
RESOLUTION_Y 75
SPACING "c"
AVERAGE_WIDTH 320
CHARSET_REGISTRY "SUR"
CHARSET_ENCODING "1"
WEIGHT 10
RESOLUTION 103
X_HEIGHT 2
QUAD_WIDTH 16
FONT_ASCENT 16
FONT_DESCENT 15
_XMBDFED_INFO "Edited with xmbdfed 3.3."
ENDPROPERTIES
CHARS 133
STARTCHAR char1
ENCODING 1
SWIDTH 3072 0
DWIDTH 32 0
BBX 31 31 -15 -15
BITMAP
FFFFFFFE
80000002
80000002
80000002
80000002
80000002
80000002
80000002
80000002
80000002
80000002
80000002
80000002
80000002
80000002
80000002
80000002
80000002
80000002
80000002
80000002
80000002
80000002
80000002
80000002
80000002
80000002
80000002
80000002
80000002
FFFFFFFE
ENDCHAR
STARTCHAR char2
ENCODING 2
SWIDTH 3072 0
DWIDTH 32 0
BBX 31 31 -15 -15
BITMAP
FFFFFFF8
FFFFFFF8
FFFFFFF8
FFFFFFF8
FFFFFFF8
FFFFFFF8
FFFFFFF8
FFFFFFF8
FFFFFFF8
FFFFFFF8
FFFFFFF8
FFFFFFF8
FFFFFFF8
FFFFFFF8
FFFFFFF8
FFFFFFF8
FFFFFFF8
FFFFFFF8
FFFFFFF8
FFFFFFF8
FFFFFFF8
FFFFFFF8
FFFFFFF8
FFFFFFF8
FFFFFFF8
FFFFFFF8
FFFFFFF8
FFFFFFF8
FFFFFFF8
FFFFFFF8
FFFFFFF8
ENDCHAR
STARTCHAR char3
ENCODING 3
SWIDTH 3072 0
DWIDTH 32 0
BBX 25 22 -12 -8
BITMAP
00080000
001C0000
001C0000
003E0000
003E0000
007F0000
00FF8000
00FF8000
01FFC000
01FFC000
03FFE000
07FFF000
07FFF000
0FFFF800
0FFFF800
1FFFFC00
3FFFFE00
3FFFFE00
7FFFFF00
7FFFFF00
FFFFFF80
FFFFFF80
ENDCHAR
STARTCHAR char4
ENCODING 4
SWIDTH 3072 0
DWIDTH 32 0
BBX 25 22 -12 -13
BITMAP
FFFFFF80
FFFFFF80
7FFFFF00
7FFFFF00
3FFFFE00
3FFFFE00
1FFFFC00
0FFFF800
0FFFF800
07FFF000
07FFF000
03FFE000
01FFC000
01FFC000
00FF8000
00FF8000
007F0000
003E0000
003E0000
001C0000
001C0000
00080000
ENDCHAR
STARTCHAR char5
ENCODING 5
SWIDTH 3072 0
DWIDTH 32 0
BBX 25 22 -12 -8
BITMAP
00080000
001C0000
00140000
00220000
00220000
00410000
00808000
00808000
01004000
01004000
02002000
04001000
04001000
08000800
08000800
10000400
20000200
20000200
40000100
40000100
80000080
FFFFFF80
ENDCHAR
STARTCHAR char6
ENCODING 6
SWIDTH 3072 0
DWIDTH 32 0
BBX 31 31 -15 -15
BITMAP
003FF800
00400400
00800200
011FF100
02200880
04400440
08800220
11000100
22000088
44000044
88000022
90000012
90000012
90000012
90000012
90000012
90000012
90000012
90000012
90000012
88000022
44000044
22000088
11000100
08800220
04400440
02200880
011FF100
00800200
00400400
003FF800
ENDCHAR
STARTCHAR char7
ENCODING 7
SWIDTH 3072 0
DWIDTH 32 0
BBX 5 5 -2 -2
BITMAP
70
F8
F8
F8
70
ENDCHAR
STARTCHAR char8
ENCODING 8
SWIDTH 3072 0
DWIDTH 32 0
BBX 13 13 -6 -6
BITMAP
0F80
3FE0
7FF0
7FF0
FFF8
FFF8
FFF8
FFF8
FFF8
7FF0
7FF0
3FE0
0F80
ENDCHAR
STARTCHAR char9
ENCODING 9
SWIDTH 3072 0
DWIDTH 32 0
BBX 2 2 -1 -1
BITMAP
C0
C0
ENDCHAR
STARTCHAR char10
ENCODING 10
SWIDTH 3072 0
DWIDTH 32 0
BBX 1 1 0 0
BITMAP
80
ENDCHAR
STARTCHAR char11
ENCODING 11
SWIDTH 3072 0
DWIDTH 32 0
BBX 3 3 -1 -2
BITMAP
40
A0
40
ENDCHAR
STARTCHAR char12
ENCODING 12
SWIDTH 3072 0
DWIDTH 32 0
BBX 1 1 0 0
BITMAP
80
ENDCHAR
STARTCHAR char13
ENCODING 13
SWIDTH 3072 0
DWIDTH 32 0
BBX 4 4 -2 -2
BITMAP
60
90
90
60
ENDCHAR
STARTCHAR char14
ENCODING 14
SWIDTH 3072 0
DWIDTH 32 0
BBX 1 1 0 0
BITMAP
80
ENDCHAR
STARTCHAR char15
ENCODING 15
SWIDTH 3072 0
DWIDTH 32 0
BBX 6 6 -3 -3
BITMAP
30
48
84
84
48
30
ENDCHAR
STARTCHAR char16
ENCODING 16
SWIDTH 3072 0
DWIDTH 32 0
BBX 1 1 0 0
BITMAP
80
ENDCHAR
STARTCHAR char17
ENCODING 17
SWIDTH 3072 0
DWIDTH 32 0
BBX 8 8 -4 -4
BITMAP
3C
42
81
81
81
81
42
3C
ENDCHAR
STARTCHAR char18
ENCODING 18
SWIDTH 3072 0
DWIDTH 32 0
BBX 1 1 0 0
BITMAP
80
ENDCHAR
STARTCHAR char19
ENCODING 19
SWIDTH 3072 0
DWIDTH 32 0
BBX 10 10 -5 -5
BITMAP
1E00
2100
4080
8040
8040
8040
8040
4080
2100
1E00
ENDCHAR
STARTCHAR char20
ENCODING 20
SWIDTH 3072 0
DWIDTH 32 0
BBX 1 1 0 0
BITMAP
80
ENDCHAR
STARTCHAR char21
ENCODING 21
SWIDTH 3072 0
DWIDTH 32 0
BBX 14 13 -7 -5
BITMAP
0300
0300
0780
0780
0B40
0B40
1320
1FE0
3FF0
2310
4308
4308
FFFC
ENDCHAR
STARTCHAR char22
ENCODING 22
SWIDTH 3072 0
DWIDTH 32 0
BBX 14 13 -7 -5
BITMAP
0300
0300
0480
0480
0840
0840
1020
1320
2310
2010
4008
4008
FFFC
ENDCHAR
STARTCHAR char23
ENCODING 23
SWIDTH 3072 0
DWIDTH 32 0
BBX 14 14 -7 -7
BITMAP
FFFC
8004
8004
8004
8004
8004
8304
8304
8004
8004
8004
8004
8004
FFFC
ENDCHAR
STARTCHAR char24
ENCODING 24
SWIDTH 3072 0
DWIDTH 32 0
BBX 14 14 -7 -7
BITMAP
0FC0
1020
2010
4008
8004
8004
8304
8304
8004
8004
4008
2010
1020
0FC0
ENDCHAR
STARTCHAR char25
ENCODING 25
SWIDTH 3072 0
DWIDTH 32 0
BBX 14 14 -7 -7
BITMAP
0300
0480
0840
1020
2010
4008
8304
8304
4008
2010
1020
0840
0480
0300
ENDCHAR
STARTCHAR char26
ENCODING 26
SWIDTH 3072 0
DWIDTH 32 0
BBX 14 14 -7 -7
BITMAP
0300
0780
0B40
1320
2310
4308
FFFC
FFFC
4308
2310
1320
0B40
0780
0300
ENDCHAR
STARTCHAR char27
ENCODING 27
SWIDTH 3072 0
DWIDTH 32 0
BBX 14 14 -7 -7
BITMAP
0FC0
1320
2310
4308
8304
8304
FFFC
FFFC
8304
8304
4308
2310
1320
0FC0
ENDCHAR
STARTCHAR char28
ENCODING 28
SWIDTH 3072 0
DWIDTH 32 0
BBX 14 14 -7 -6
BITMAP
FFFC
C00C
A014
9024
8844
8484
8304
8304
8484
8844
9024
A014
C00C
FFFC
ENDCHAR
STARTCHAR char29
ENCODING 29
SWIDTH 3072 0
DWIDTH 32 0
BBX 8 14 -4 -6
BITMAP
18
18
24
24
42
42
81
81
42
42
24
24
18
18
ENDCHAR
STARTCHAR char30
ENCODING 30
SWIDTH 3072 0
DWIDTH 32 0
BBX 16 14 -8 -6
BITMAP
0180
03C0
03C0
07E0
07E0
0FF0
0E70
1C38
1C38
3E7C
3FFC
7FFE
7FFE
FFFF
ENDCHAR
STARTCHAR char31
ENCODING 31
SWIDTH 3072 0
DWIDTH 32 0
BBX 16 16 -8 -8
BITMAP
FFFF
FFFF
FFFF
FFFF
FFFF
FFFF
FE7F
FC3F
FC3F
FE7F
FFFF
FFFF
FFFF
FFFF
FFFF
FFFF
ENDCHAR
STARTCHAR char32
ENCODING 32
SWIDTH 3072 0
DWIDTH 32 0
BBX 16 16 -8 -8
BITMAP
0180
03C0
07E0
0FF0
1FF8
3FFC
7E7E
FC3F
FC3F
7E7E
3FFC
1FF8
0FF0
07E0
03C0
0180
ENDCHAR
STARTCHAR char33
ENCODING 33
SWIDTH 3072 0
DWIDTH 32 0
BBX 16 16 -8 -8
BITMAP
0180
03C0
0660
0C30
1818
300C
6006
C003
C003
6006
300C
1818
0C30
0660
03C0
0180
ENDCHAR
STARTCHAR char34
ENCODING 34
SWIDTH 3072 0
DWIDTH 32 0
BBX 16 16 -8 -8
BITMAP
0180
03C0
07E0
0FF0
1FF8
3FFC
7FFE
FFFF
FFFF
7FFE
3FFC
1FF8
0FF0
07E0
03C0
0180
ENDCHAR
STARTCHAR char35
ENCODING 35
SWIDTH 3072 0
DWIDTH 32 0
BBX 16 16 -8 -8
BITMAP
0FF0
1FF8
3FFC
7FFE
FFFF
FFFF
FFFF
FFFF
FFFF
FFFF
FFFF
FFFF
7FFE
3FFC
1FF8
0FF0
ENDCHAR
STARTCHAR char36
ENCODING 36
SWIDTH 3072 0
DWIDTH 32 0
BBX 16 14 -8 -6
BITMAP
0180
03C0
03C0
07E0
07E0
0FF0
0FF0
1FF8
1FF8
3FFC
3FFC
7FFE
7FFE
FFFF
ENDCHAR
STARTCHAR char37
ENCODING 37
SWIDTH 3072 0
DWIDTH 32 0
BBX 16 16 -8 -8
BITMAP
FFFF
FFFF
FFFF
FFFF
FFFF
FFFF
FFFF
FFFF
FFFF
FFFF
FFFF
FFFF
FFFF
FFFF
FFFF
FFFF
ENDCHAR
STARTCHAR char38
ENCODING 38
SWIDTH 3072 0
DWIDTH 32 0
BBX 16 16 -8 -8
BITMAP
07E0
1FF8
3FFC
7FFE
7FFE
FFFF
FFFF
FFFF
FFFF
FFFF
FFFF
7FFE
7FFE
3FFC
1FF8
07E0
ENDCHAR
STARTCHAR char39
ENCODING 39
SWIDTH 3072 0
DWIDTH 32 0
BBX 16 16 -8 -8
BITMAP
07E0
1818
2004
4002
4002
8001
8001
8001
8001
8001
8001
4002
4002
2004
1818
07E0
ENDCHAR
STARTCHAR char40
ENCODING 40
SWIDTH 3072 0
DWIDTH 32 0
BBX 4 4 -2 -2
BITMAP
60
F0
F0
60
ENDCHAR
STARTCHAR char41
ENCODING 41
SWIDTH 3072 0
DWIDTH 32 0
BBX 6 6 -3 -3
BITMAP
30
78
FC
FC
78
30
ENDCHAR
STARTCHAR char42
ENCODING 42
SWIDTH 3072 0
DWIDTH 32 0
BBX 8 8 -4 -4
BITMAP
18
3C
7E
FF
FF
7E
3C
18
ENDCHAR
STARTCHAR char43
ENCODING 43
SWIDTH 3072 0
DWIDTH 32 0
BBX 16 16 -8 -8
BITMAP
8001
4002
2004
1008
0810
0420
0240
0180
0180
0240
0420
0810
1008
2004
4002
8001
ENDCHAR
STARTCHAR char121
ENCODING 50
SWIDTH 3072 0
DWIDTH 32 0
BBX 24 24 -12 -12
BITMAP
007E00
018180
060060
080010
100008
201804
201804
403C02
403C02
805A01
805A01
809901
80FF01
81FF81
811881
421842
421842
27FFE4
200004
100008
080010
060060
018180
007E00
ENDCHAR
STARTCHAR char122
ENCODING 51
SWIDTH 3072 0
DWIDTH 32 0
BBX 24 24 -12 -12
BITMAP
007E00
018180
060060
080010
101808
201804
202404
402402
404202
804201
808101
809901
811881
810081
820041
420042
47FFE2
200004
200004
100008
080010
060060
018180
007E00
ENDCHAR
STARTCHAR char123
ENCODING 52
SWIDTH 3072 0
DWIDTH 32 0
BBX 24 24 -12 -12
BITMAP
007E00
018180
060060
080010
100008
27FFE4
240024
440022
440022
840021
840021
841821
841821
840021
840021
440022
440022
240024
27FFE4
100008
080010
060060
018180
007E00
ENDCHAR
STARTCHAR char124
ENCODING 53
SWIDTH 3072 0
DWIDTH 32 0
BBX 24 24 -12 -12
BITMAP
007E00
018180
060060
080010
100008
207E04
208104
410082
420042
840021
840021
841821
841821
840021
840021
420042
410082
208104
207E04
100008
080010
060060
018180
007E00
ENDCHAR
STARTCHAR char125
ENCODING 54
SWIDTH 3072 0
DWIDTH 32 0
BBX 24 24 -12 -12
BITMAP
007E00
018180
060060
080010
100008
201804
202404
404202
408102
810081
820041
841821
841821
820041
810081
408102
404202
202404
201804
100008
080010
060060
018180
007E00
ENDCHAR
STARTCHAR char126
ENCODING 55
SWIDTH 3072 0
DWIDTH 32 0
BBX 24 24 -12 -12
BITMAP
007E00
018180
060060
080010
100008
201804
203C04
405A02
409902
811881
821841
87FFE1
87FFE1
821841
811881
409902
405A02
203C04
201804
100008
080010
060060
018180
007E00
ENDCHAR
STARTCHAR char127
ENCODING 56
SWIDTH 3072 0
DWIDTH 32 0
BBX 24 24 -12 -12
BITMAP
007E00
018180
060060
080010
100008
207E04
209904
411882
421842
841821
841821
87FFE1
87FFE1
841821
841821
421842
411882
209904
207E04
100008
080010
060060
018180
007E00
ENDCHAR
STARTCHAR char128
ENCODING 57
SWIDTH 3072 0
DWIDTH 32 0
BBX 24 24 -12 -12
BITMAP
007E00
018180
060060
080010
100008
27FFE4
260064
4500A2
448122
844221
842421
841821
841821
842421
844221
448122
4500A2
260064
27FFE4
100008
080010
060060
018180
007E00
ENDCHAR
STARTCHAR char129
ENCODING 58
SWIDTH 3072 0
DWIDTH 32 0
BBX 24 24 -12 -12
BITMAP
007E00
018180
060060
080010
100008
201804
201804
402402
402402
804201
804201
808101
808101
804201
804201
402402
402402
201804
201804
100008
080010
060060
018180
007E00
ENDCHAR
STARTCHAR char59
ENCODING 59
SWIDTH 3072 0
DWIDTH 32 0
BBX 21 17 -11 -8
BITMAP
002000
005000
008800
008800
010400
010400
022200
046100
04E100
082080
102040
102040
202020
407010
400010
800008
FFFFF8
ENDCHAR
STARTCHAR char60
ENCODING 60
SWIDTH 3072 0
DWIDTH 32 0
BBX 21 17 -11 -8
BITMAP
002000
005000
008800
008800
010400
010400
026200
049100
049100
081080
102040
104040
208020
40F010
400010
800008
FFFFF8
ENDCHAR
STARTCHAR char61
ENCODING 61
SWIDTH 3072 0
DWIDTH 32 0
BBX 21 17 -11 -8
BITMAP
002000
005000
008800
008800
010400
010400
026200
049100
041100
081080
106040
101040
201020
409010
406010
800008
FFFFF8
ENDCHAR
STARTCHAR char62
ENCODING 62
SWIDTH 3072 0
DWIDTH 32 0
BBX 27 27 -14 -13
BITMAP
001C0000
00120000
00110000
00110000
00108000
00108000
00104000
38104000
24102000
22102000
22257F00
23FA02C0
40000320
80001320
40000320
23FA02C0
22257F00
22102000
24102000
38104000
00104000
00108000
00108000
00110000
00110000
00120000
001C0000
ENDCHAR
STARTCHAR char63
ENCODING 63
SWIDTH 3072 0
DWIDTH 32 0
BBX 24 24 -12 -12
BITMAP
00001E
1C0021
238051
2070B9
100F1D
08020A
040444
020808
010010
009030
00A050
00C090
008208
710408
8E0808
801E04
402104
204084
104042
104022
1C2012
02200C
012000
00C000
ENDCHAR
STARTCHAR char64
ENCODING 64
SWIDTH 3072 0
DWIDTH 32 0
BBX 27 27 -14 -13
BITMAP
000E0000
00110000
00110000
002E8000
003F8000
00208000
00208000
00248000
00E0E000
03209800
0C000600
30208180
40110040
80208020
80110020
FFD17FE0
00318000
00110000
00110000
00110000
0071C000
00802000
01001000
01001000
01F1F000
000A0000
00040000
ENDCHAR
STARTCHAR char65
ENCODING 65
SWIDTH 3072 0
DWIDTH 32 0
BBX 24 24 -12 -12
BITMAP
780000
840038
8A01C4
9D0E04
B8F008
504010
222020
101040
080080
0C0900
0A0500
090300
104100
10208E
101071
207801
208402
210204
420208
440208
480438
300440
000480
000300
ENDCHAR
STARTCHAR char66
ENCODING 66
SWIDTH 3072 0
DWIDTH 32 0
BBX 27 27 -13 -13
BITMAP
00070000
00090000
00110000
00110000
00210000
00210000
00410000
00410380
00810480
00810880
1FD48880
680BF880
98000040
99000020
98000040
680BF880
1FD48880
00810880
00810480
00410380
00410000
00210000
00210000
00110000
00110000
00090000
00070000
ENDCHAR
STARTCHAR char67
ENCODING 67
SWIDTH 3072 0
DWIDTH 32 0
BBX 24 24 -12 -12
BITMAP
000300
000480
300440
480438
440208
420208
210204
208402
207801
101071
10208E
104100
090300
0A0500
0C0900
080080
101040
222020
504010
B8F008
9D0E04
8A01C4
840038
780000
ENDCHAR
STARTCHAR char68
ENCODING 68
SWIDTH 3072 0
DWIDTH 32 0
BBX 27 27 -13 -12
BITMAP
00040000
000A0000
01F1F000
01001000
01001000
00802000
0071C000
00110000
00110000
00110000
00318000
FFD17FE0
80110020
80208020
40110040
30208180
0C000600
03209800
00E0E000
00248000
00208000
00208000
003F8000
002E8000
00110000
00110000
000E0000
ENDCHAR
STARTCHAR char69
ENCODING 69
SWIDTH 3072 0
DWIDTH 32 0
BBX 24 24 -12 -12
BITMAP
00C000
012000
02200C
1C2012
104022
104042
204084
402104
801E04
8E0808
710408
008208
00C090
00A050
009030
010010
020808
040444
08020A
100F1D
2070B9
238051
1C0021
00001E
ENDCHAR
STARTCHAR char70
ENCODING 70
SWIDTH 3072 0
DWIDTH 32 0
BBX 32 15 -16 -5
BITMAP
00008000
00008000
00008000
00008000
00008000
0001C000
00022000
0005D000
000BE800
FFF007FF
7189C98E
067A2E60
024A2A40
0185D180
0003E000
ENDCHAR
STARTCHAR char71
ENCODING 71
SWIDTH 3072 0
DWIDTH 32 0
BBX 8 8 -4 -4
BITMAP
3C
42
81
81
81
81
42
3C
ENDCHAR
STARTCHAR char72
ENCODING 72
SWIDTH 3072 0
DWIDTH 32 0
BBX 7 8 -4 -4
BITMAP
10
10
28
28
44
44
82
FE
ENDCHAR
STARTCHAR char73
ENCODING 73
SWIDTH 3072 0
DWIDTH 32 0
BBX 8 8 -4 -4
BITMAP
FF
81
81
81
81
81
81
FF
ENDCHAR
STARTCHAR char74
ENCODING 74
SWIDTH 3072 0
DWIDTH 32 0
BBX 8 8 -4 -4
BITMAP
18
7E
7E
FF
FF
7E
7E
18
ENDCHAR
STARTCHAR char75
ENCODING 75
SWIDTH 3072 0
DWIDTH 32 0
BBX 6 6 -3 -3
BITMAP
30
78
FC
FC
78
30
ENDCHAR
STARTCHAR char76
ENCODING 76
SWIDTH 3072 0
DWIDTH 32 0
BBX 6 6 -3 -3
BITMAP
78
FC
FC
FC
FC
78
ENDCHAR
STARTCHAR char77
ENCODING 77
SWIDTH 3072 0
DWIDTH 32 0
BBX 8 8 -4 -4
BITMAP
81
42
24
18
18
24
42
81
ENDCHAR
STARTCHAR char78
ENCODING 78
SWIDTH 3072 0
DWIDTH 32 0
BBX 8 8 -4 -4
BITMAP
7E
BD
DB
E7
E7
DB
BD
7E
ENDCHAR
STARTCHAR char79
ENCODING 79
SWIDTH 3072 0
DWIDTH 32 0
BBX 8 8 -4 -4
BITMAP
FF
81
81
99
99
81
81
FF
ENDCHAR
STARTCHAR char80
ENCODING 80
SWIDTH 3072 0
DWIDTH 32 0
BBX 8 8 -4 -4
BITMAP
FF
FF
C3
DB
DB
C3
FF
FF
ENDCHAR
STARTCHAR char81
ENCODING 81
SWIDTH 3072 0
DWIDTH 32 0
BBX 8 8 -4 -4
BITMAP
18
24
42
99
99
42
24
18
ENDCHAR
STARTCHAR char82
ENCODING 82
SWIDTH 3072 0
DWIDTH 32 0
BBX 8 8 -4 -4
BITMAP
E7
DB
BD
66
66
BD
DB
E7
ENDCHAR
STARTCHAR char83
ENCODING 83
SWIDTH 3072 0
DWIDTH 32 0
BBX 2 2 -1 -1
BITMAP
C0
C0
ENDCHAR
STARTCHAR char84
ENCODING 84
SWIDTH 3072 0
DWIDTH 32 0
BBX 4 4 -2 -2
BITMAP
F0
F0
F0
F0
ENDCHAR
STARTCHAR char85
ENCODING 85
SWIDTH 3072 0
DWIDTH 32 0
BBX 8 8 -4 -4
BITMAP
18
18
18
FF
FF
18
18
18
ENDCHAR
STARTCHAR char86
ENCODING 86
SWIDTH 3072 0
DWIDTH 32 0
BBX 8 8 -4 -4
BITMAP
E7
E7
E7
00
00
E7
E7
E7
ENDCHAR
STARTCHAR char87
ENCODING 87
SWIDTH 3072 0
DWIDTH 32 0
BBX 18 20 -9 -10
BITMAP
FFFFC0
800040
800040
800040
800040
800040
800040
800040
800040
800040
800040
800040
800040
800040
800040
800040
800040
800040
800040
FFFFC0
ENDCHAR
STARTCHAR char88
ENCODING 88
SWIDTH 3072 0
DWIDTH 32 0
BBX 18 18 -9 -8
BITMAP
00C000
00C000
012000
012000
021000
021000
040800
040800
080400
080400
100200
100200
200100
200100
400080
400080
800040
FFFFC0
ENDCHAR
STARTCHAR char89
ENCODING 89
SWIDTH 3072 0
DWIDTH 32 0
BBX 20 20 -10 -10
BITMAP
03FC00
040200
080100
100080
200040
400020
800010
800010
800010
800010
800010
800010
800010
800010
400020
200040
100080
080100
040200
03FC00
ENDCHAR
STARTCHAR char90
ENCODING 90
SWIDTH 3072 0
DWIDTH 32 0
BBX 8 8 -4 -4
BITMAP
3C
7E
FF
FF
FF
FF
7E
3C
ENDCHAR
STARTCHAR char91
ENCODING 91
SWIDTH 3072 0
DWIDTH 32 0
BBX 20 20 -10 -10
BITMAP
03FC00
0FFF00
1FFF80
3FFFC0
3FFFC0
7FFFE0
7FFFE0
FFFFF0
FFFFF0
FFFFF0
FFFFF0
FFFFF0
FFFFF0
7FFFE0
7FFFE0
3FFFC0
3FFFC0
1FFF80
0FFF00
03FC00
ENDCHAR
STARTCHAR char92
ENCODING 92
SWIDTH 3072 0
DWIDTH 32 0
BBX 20 20 -10 -10
BITMAP
FFFFF0
C00030
A00050
900090
880110
840210
820410
810810
809010
806010
806010
809010
810810
820410
840210
880110
900090
A00050
C00030
FFFFF0
ENDCHAR
STARTCHAR char93
ENCODING 93
SWIDTH 3072 0
DWIDTH 32 0
BBX 18 18 -9 -8
BITMAP
00C000
00C000
016000
016000
025000
025000
044800
044800
084400
084400
104200
104200
204100
204100
404080
404080
804040
FFFFC0
ENDCHAR
STARTCHAR char94
ENCODING 94
SWIDTH 3072 0
DWIDTH 32 0
BBX 18 18 -9 -8
BITMAP
00C000
00C000
012000
012000
021000
021000
040800
040800
080400
08C400
11E200
11E200
20C100
200100
400080
400080
800040
FFFFC0
ENDCHAR
STARTCHAR char95
ENCODING 95
SWIDTH 3072 0
DWIDTH 32 0
BBX 18 18 -9 -8
BITMAP
00C000
00C000
01E000
01E000
03F000
03F000
07F800
07F800
0FFC00
0FFC00
1FFE00
1FFE00
3FFF00
3FFF00
7FFF80
7FFF80
FFFFC0
FFFFC0
ENDCHAR
STARTCHAR char96
ENCODING 96
SWIDTH 3072 0
DWIDTH 32 0
BBX 18 18 -9 -10
BITMAP
FFFFC0
FFFFC0
7FFF80
7FFF80
3FFF00
3FFF00
1FFE00
1FFE00
0FFC00
0FFC00
07F800
07F800
03F000
03F000
01E000
01E000
00C000
00C000
ENDCHAR
STARTCHAR char97
ENCODING 97
SWIDTH 3072 0
DWIDTH 32 0
BBX 20 20 -10 -10
BITMAP
01F800
060600
080100
100080
200040
400020
400020
800010
800010
800010
800010
800010
800010
400020
400020
200040
100080
080100
060600
01F800
ENDCHAR
STARTCHAR char100
ENCODING 100
SWIDTH 3072 0
DWIDTH 32 0
BBX 21 17 -10 -7
BITMAP
002000
005000
008800
008800
010400
010400
020200
040100
040100
080080
100040
100040
200020
400010
400010
800008
FFFFF8
ENDCHAR
STARTCHAR char101
ENCODING 101
SWIDTH 3072 0
DWIDTH 32 0
BBX 11 11 -5 -6
BITMAP
1F00
2080
4040
8020
8020
8020
8020
8020
4040
2080
1F00
ENDCHAR
STARTCHAR char102
ENCODING 102
SWIDTH 3072 0
DWIDTH 32 0
BBX 9 9 -4 -5
BITMAP
3E00
4100
8080
8080
8080
8080
8080
4100
3E00
ENDCHAR
STARTCHAR char103
ENCODING 103
SWIDTH 3072 0
DWIDTH 32 0
BBX 7 7 -3 -4
BITMAP
38
44
82
82
82
44
38
ENDCHAR
STARTCHAR char104
ENCODING 104
SWIDTH 3072 0
DWIDTH 32 0
BBX 5 5 -2 -3
BITMAP
70
88
88
88
70
ENDCHAR
STARTCHAR char105
ENCODING 105
SWIDTH 3072 0
DWIDTH 32 0
BBX 5 5 -2 -3
BITMAP
70
88
88
88
70
ENDCHAR
STARTCHAR char106
ENCODING 106
SWIDTH 3072 0
DWIDTH 32 0
BBX 3 3 -1 -2
BITMAP
E0
A0
E0
ENDCHAR
STARTCHAR char107
ENCODING 107
SWIDTH 3072 0
DWIDTH 32 0
BBX 3 3 -1 -2
BITMAP
40
A0
40
ENDCHAR
STARTCHAR char108
ENCODING 108
SWIDTH 3072 0
DWIDTH 32 0
BBX 2 2 0 -1
BITMAP
C0
C0
ENDCHAR
STARTCHAR char109
ENCODING 109
SWIDTH 3072 0
DWIDTH 32 0
BBX 2 2 0 -1
BITMAP
C0
C0
ENDCHAR
STARTCHAR char110
ENCODING 110
SWIDTH 3072 0
DWIDTH 32 0
BBX 2 2 0 -1
BITMAP
C0
C0
ENDCHAR
STARTCHAR char111
ENCODING 111
SWIDTH 3072 0
DWIDTH 32 0
BBX 2 2 0 -1
BITMAP
C0
C0
ENDCHAR
STARTCHAR char112
ENCODING 112
SWIDTH 3072 0
DWIDTH 32 0
BBX 2 2 0 -1
BITMAP
C0
C0
ENDCHAR
STARTCHAR char115
ENCODING 115
SWIDTH 3072 0
DWIDTH 32 0
BBX 14 16 -7 -8
BITMAP
03C0
0C30
3010
3018
4F18
4A18
8E18
8938
8830
8070
80E0
43E0
3FE0
01F0
02E8
07FC
ENDCHAR
STARTCHAR char90
ENCODING 116
SWIDTH 3072 0
DWIDTH 32 0
BBX 8 2 -4 -1
BITMAP
FF
FF
ENDCHAR
STARTCHAR char97
ENCODING 117
SWIDTH 3072 0
DWIDTH 32 0
BBX 20 19 -10 -10
BITMAP
01F800
060600
080100
100080
200040
400020
400020
F8F1F0
470E20
220440
110880
090900
049200
029400
016800
00F000
006000
006000
006000
ENDCHAR
STARTCHAR char98
ENCODING 118
SWIDTH 3072 0
DWIDTH 32 0
BBX 24 24 -12 -12
BITMAP
001800
001800
001800
001800
007E00
018180
020040
040020
040020
080010
080010
F8001F
F8001F
080010
080010
040020
040020
020040
018180
007E00
001800
001800
001800
001800
ENDCHAR
STARTCHAR char99
ENCODING 119
SWIDTH 3072 0
DWIDTH 32 0
BBX 24 24 -12 -12
BITMAP
003C00
060060
0C0030
00FF00
210084
620046
440022
080010
100008
100008
900009
900009
900009
900009
100008
100008
080010
440022
620046
210084
00FF00
0C0030
060060
003C00
ENDCHAR
STARTCHAR char120
ENCODING 120
SWIDTH 3072 0
DWIDTH 32 0
BBX 22 20 -11 -10
BITMAP
07FF80
083040
087840
107820
10FC20
20FC10
21FE10
43FF08
43FF08
87FF84
87FF84
4FFFC8
5FFFE8
3FFFF0
3FFFF0
1FFFE0
100020
080040
080040
07FF80
ENDCHAR
STARTCHAR char121
ENCODING 121
SWIDTH 3072 0
DWIDTH 32 0
BBX 22 20 -11 -10
BITMAP
07FF80
080040
080040
100020
100020
200010
200010
400008
403008
807804
807804
403008
400008
200010
200010
100020
100020
080040
080040
07FF80
ENDCHAR
STARTCHAR char122
ENCODING 122
SWIDTH 3072 0
DWIDTH 32 0
BBX 22 20 -11 -10
BITMAP
FFFFFC
880044
880044
900024
900024
A00014
A00014
C0000C
C0300C
807804
807804
C0300C
C0000C
A00014
A00014
900024
900024
880044
880044
FFFFFC
ENDCHAR
STARTCHAR char123
ENCODING 123
SWIDTH 3072 0
DWIDTH 32 0
BBX 22 18 -11 -9
BITMAP
040080
0E01C0
1C00E0
3FFFF0
780078
F0003C
680058
083040
047880
047880
023100
020100
010200
010200
008400
01FE00
01FE00
01FE00
ENDCHAR
STARTCHAR char124
ENCODING 124
SWIDTH 3072 0
DWIDTH 32 0
BBX 22 18 -11 -9
BITMAP
040080
0A0140
1400A0
27FF90
400008
900024
680058
080040
040080
040080
020100
020100
010200
010200
008400
018600
010200
01FE00
ENDCHAR
STARTCHAR char125
ENCODING 125
SWIDTH 3072 0
DWIDTH 32 0
BBX 24 24 -12 -12
BITMAP
001800
001800
001800
001800
007E00
01C380
03C3C0
07C3E0
07C3E0
0FC3F0
0FC3F0
FFC3FF
FFC3FF
0FC3F0
0FC3F0
07C3E0
07C3E0
03C3C0
01C380
007E00
001800
001800
001800
001800
ENDCHAR
STARTCHAR char126
ENCODING 126
SWIDTH 3072 0
DWIDTH 32 0
BBX 24 24 -12 -12
BITMAP
001800
001800
001800
001800
007E00
01FF80
027FC0
043FE0
041FE0
0E0FF0
0F07F0
FF83FF
FFC1FF
0FE0F0
0FF070
07F820
07FC20
03FE40
01FF80
007E00
001800
001800
001800
001800
ENDCHAR
STARTCHAR char127
ENCODING 127
SWIDTH 3072 0
DWIDTH 32 0
BBX 24 24 -12 -12
BITMAP
001800
001800
001800
001800
007E00
01FF80
03FE40
07FC20
07F820
0FF070
0FE0F0
FFC1FF
FF83FF
0F07F0
0E0FF0
041FE0
043FE0
027FC0
01FF80
007E00
001800
001800
001800
001800
ENDCHAR
STARTCHAR char128
ENCODING 128
SWIDTH 3072 0
DWIDTH 32 0
BBX 24 24 -12 -12
BITMAP
001800
001800
001800
001800
007E00
01FF80
03FFC0
07FFE0
07FFE0
0FFFF0
080010
F8001F
F8001F
080010
0FFFF0
07FFE0
07FFE0
03FFC0
01FF80
007E00
001800
001800
001800
001800
ENDCHAR
STARTCHAR char129
ENCODING 129
SWIDTH 3072 0
DWIDTH 32 0
BBX 24 24 -12 -12
BITMAP
001800
001800
001800
001800
007E00
01FF80
03FFC0
07FFE0
07FFA0
0FFC10
0FE010
FF001F
F800FF
0807F0
083FF0
05FFE0
07FFE0
03FFC0
01FF80
007E00
001800
001800
001800
001800
ENDCHAR
STARTCHAR char130
ENCODING 130
SWIDTH 3072 0
DWIDTH 32 0
BBX 24 24 -12 -12
BITMAP
001800
001800
001800
001800
007E00
018F80
030FC0
078FE0
0787E0
0F87F0
0FC7F0
FFC3FF
FFC3FF
0FE3F0
0FE1F0
07E1E0
07F1E0
03F0C0
01F180
007E00
001800
001800
001800
001800
ENDCHAR
STARTCHAR char131
ENCODING 131
SWIDTH 3072 0
DWIDTH 32 0
BBX 24 24 -12 -12
BITMAP
001800
001800
001800
001800
007E00
01F180
03F0C0
07F1E0
07E1E0
0FE1F0
0FE3F0
FFC3FF
FFC3FF
0FC7F0
0F87F0
0787E0
078FE0
030FC0
018F80
007E00
001800
001800
001800
001800
ENDCHAR
STARTCHAR char132
ENCODING 132
SWIDTH 3072 0
DWIDTH 32 0
BBX 24 24 -12 -12
BITMAP
001800
001800
001800
001800
007E00
01FF80
03FFC0
07FFE0
05FFE0
083FF0
0807F0
F800FF
FF001F
0FE010
0FFC10
07FFA0
07FFE0
03FFC0
01FF80
007E00
001800
001800
001800
001800
ENDCHAR
STARTCHAR char87
ENCODING 133
SWIDTH 3072 0
DWIDTH 32 0
BBX 14 14 -7 -7
BITMAP
FFFC
8004
8004
8004
8004
8004
8004
8004
8004
8004
8004
8004
8004
FFFC
ENDCHAR
STARTCHAR char92
ENCODING 134
SWIDTH 3072 0
DWIDTH 32 0
BBX 14 14 -7 -7
BITMAP
FFFC
C00C
A014
9024
8844
8484
8304
8304
8484
8844
9024
A014
C00C
FFFC
ENDCHAR
STARTCHAR char88
ENCODING 135
SWIDTH 3072 0
DWIDTH 32 0
BBX 18 18 -9 -8
BITMAP
00C000
00C000
012000
012000
021000
021000
040800
040800
080400
080400
100200
100200
200100
200100
400080
400080
800040
FFFFC0
ENDCHAR
STARTCHAR char88
ENCODING 136
SWIDTH 3072 0
DWIDTH 32 0
BBX 18 18 -9 -8
BITMAP
00C000
00C000
016000
016000
025000
025000
044800
044800
084400
084400
104200
104200
204100
204100
404080
404080
804040
FFFFC0
ENDCHAR
STARTCHAR char88
ENCODING 137
SWIDTH 3072 0
DWIDTH 32 0
BBX 18 18 -9 -8
BITMAP
00C000
00C000
012000
012000
021000
021000
040800
040800
080400
08C400
11E200
11E200
20C100
200100
400080
400080
800040
FFFFC0
ENDCHAR
STARTCHAR char95
ENCODING 138
SWIDTH 3072 0
DWIDTH 32 0
BBX 12 12 -6 -5
BITMAP
0600
0600
0F00
0F00
1F80
1F80
3FC0
3FC0
7FE0
7FE0
FFF0
FFF0
ENDCHAR
STARTCHAR char95
ENCODING 139
SWIDTH 3072 0
DWIDTH 32 0
BBX 12 12 -6 -6
BITMAP
FFF0
FFF0
7FE0
7FE0
3FC0
3FC0
1F80
1F80
0F00
0F00
0600
0600
ENDCHAR
STARTCHAR char89
ENCODING 140
SWIDTH 3072 0
DWIDTH 32 0
BBX 14 14 -7 -7
BITMAP
0FC0
1020
2010
4008
8004
8004
8004
8004
8004
8004
4008
2010
1020
0FC0
ENDCHAR
STARTCHAR char97
ENCODING 141
SWIDTH 3072 0
DWIDTH 32 0
BBX 14 14 -7 -7
BITMAP
0780
1860
2010
4008
4008
8004
8004
8004
8004
4008
4008
2010
1860
0780
ENDCHAR
STARTCHAR char90
ENCODING 142
SWIDTH 3072 0
DWIDTH 32 0
BBX 8 8 -4 -4
BITMAP
3C
7E
FF
FF
FF
FF
7E
3C
ENDCHAR
STARTCHAR char91
ENCODING 143
SWIDTH 3072 0
DWIDTH 32 0
BBX 14 14 -7 -7
BITMAP
0FC0
3FF0
7FF8
7FF8
FFFC
FFFC
FFFC
FFFC
FFFC
FFFC
7FF8
7FF8
3FF0
0FC0
ENDCHAR
ENDFONT
